<svg xmlns="http://www.w3.org/2000/svg" viewBox="0 0 280.39 459.91"><defs><style>.cls-1{fill:#efbb86;}.cls-1,.cls-3,.cls-5,.cls-8,.cls-9{stroke:#000;}.cls-1,.cls-10,.cls-3,.cls-5,.cls-8,.cls-9{stroke-miterlimit:10;}.cls-1,.cls-9{stroke-width:2px;}.cls-2{fill:#cb9f72;}.cls-3,.cls-5{fill:none;}.cls-3{stroke-width:0.5px;}.cls-4,.cls-7{opacity:0.15;}.cls-10,.cls-5,.cls-8{stroke-width:3px;}.cls-6,.cls-7,.cls-8{fill:#fff;}.cls-6{opacity:0.4;}.cls-10{fill:#281600;stroke:#281600;}</style></defs><title>me</title><g id="neck"><polygon class="cls-1" points="162.89 413.91 162.89 458.91 193.89 458.91 187.89 401.91 162.89 406.91 162.89 413.91"/><polygon class="cls-2" points="171.89 457.91 184.89 405.91 163.89 406.91 163.89 457.91 171.89 457.91"/><polyline class="cls-3" points="166.89 416.91 181.14 416.91 163.89 421.91 179.89 421.91 163.89 426.91 178.39 426.91 163.89 431.91 177.39 431.91 163.89 437.91 175.89 437.91 163.89 442.91 174.64 442.91 163.89 445.91 173.89 445.91 163.89 448.91 173.14 448.91 163.89 452.91 172.14 452.91 163.89 455.91 171.39 455.91 165.89 457.91"/></g><g id="face"><path class="cls-1" d="M327,118s12,3,12,19l-3,99v24l22,60-44-2,7,37,3,5-14,10,7,2s7,2,7,6c0,0,5,25,5,37l-2,3-95,38s-56-115-70-153c0,0-2-11,0-13,0,0-22,21-41,8,0,0-20-22-12-45,0,0,6-13,21-11h9l13-110S230,83,327,118Z" transform="translate(-106.11 -24.09)"/><path class="cls-4" d="M323,118s12,3,12,19l-3,99v24l22,60-44-2,7,37,3,5-14,10,7,2s7,2,7,6c0,0,5,25,5,37l-2,3-7,2s-20-80-27-118l33-3s-12-147-32-181Z" transform="translate(-106.11 -24.09)"/><path class="cls-5" d="M128,264s14-2,13,13" transform="translate(-106.11 -24.09)"/><path class="cls-6" d="M164,288.5v11s50.41,115,71,150l18.52-6s-50.41-48-82.3-154Z" transform="translate(-106.11 -24.09)"/></g><g id="hair"><path d="M128,244a51.22,51.22,0,0,1-2-19s2-10,0-18c0,0-5-21,3-41,0,0,2-50,9-55l-31-2s4-7,21-6L108,88s17-3,29,14c0,0,0-23,12-26,0,0-7,23-5,28,0,0,19-17,24-10a10,10,0,0,0,4-1s7-4,13-1c0,0,4,1,6-2,0,0,14-10,25-7,0,0,7,1,10-3,0,0,6-13,20-10a30.85,30.85,0,0,0,25-7s24-23,31-35l7,7v3L299,64s0,3,3,1l22-37s9-10,14,2V62l1,1a7.47,7.47,0,0,0,3-3s6-21,13-24c0,0,6-2,8,4,0,0,9,36,5,62l-25,9s-8,2-7,12l-4,3s-12,4-30-3a5.64,5.64,0,0,0-6,0s-28,5-48-1c0,0-24-4-37,5,0,0-9,9-25,11,0,0-14,0-18,19a136.68,136.68,0,0,0-1,27s3,9,2,24c0,0-2,7,0,12,0,0,9,14,4,22v2s6,8,6,16c0,0,2,8-1,11,0,0-3,5-7,6h-9S146,249,128,244Z" transform="translate(-106.11 -24.09)"/><path class="cls-7" d="M161.73,107s7.34-4,13.63-1c0,0,4.19,1,6.28-2,0,0,14.68-10,26.21-7,0,0,7.33,1,10.48-3,0,0,6.28-13,21-10a33.53,33.53,0,0,0,26.2-7S290.64,54,298,42l7.33,7v3L294.83,78s0,3,3.15,1L321,42s9.43-10,14.67,2V76l1.05,1a7.71,7.71,0,0,0,3.14-3s6.29-21,13.63-24c0,0,6.28-2,8.38,4,0,0,6.31,21,3.25,33L357,99l-11.23,4-8.16,5a318.45,318.45,0,0,1-59.6,6c-24.57,0-56.83,6.56-79,5C174.33,117.26,161,107.33,161.73,107Z" transform="translate(-106.11 -24.09)"/></g><g id="right-eye"><ellipse class="cls-8" cx="230.89" cy="208.41" rx="48" ry="37.5"/><ellipse cx="351.14" cy="247.82" rx="4.24" ry="4.95" transform="translate(-112.29 462.56) rotate(-68.97)"/></g><g id="left-eye"><path class="cls-8" d="M303,228c0,22.64-24.28,46-53,46s-49.71-18.6-53-41c-5-34,25.28-46,54-46S303,205.36,303,228Z" transform="translate(-106.11 -24.09)"/><ellipse class="cls-9" cx="267.44" cy="237.61" rx="4.83" ry="6" transform="translate(-164.49 361.24) rotate(-66.01)"/></g><g id="eyebrowns"><path class="cls-10" d="M236,163s18-13,30,0c0,0,3,3,6,1,0,0,3-4,0-7,0,0-16-18-37,5Z" transform="translate(-106.11 -24.09)"/><path class="cls-10" d="M317,166s34-22,52-4c0,0,3,2,3,5,0,0,1,3-1,4,0,0-3,2-8-1C363,170,350,154,317,166Z" transform="translate(-106.11 -24.09)"/></g></svg>